<svg width="32" height="32" viewBox="0 0 32 32" fill="none" xmlns="http://www.w3.org/2000/svg">
<g clip-path="url(#clip0_1050_4727)">
<path d="M16.0001 4C16.6628 4 17.2 4.53723 17.2 5.19995L17.2 14.8L26.8001 14.8001C27.4628 14.8001 28 15.3373 28 16C28 16.6627 27.4628 17.1999 26.8001 17.1999L17.2 17.1987L17.2 26.8002C17.2 27.4629 16.6628 28.0001 16.0001 28.0001C15.3373 28.0001 14.8001 27.4629 14.8001 26.8002L14.8 17.1987L5.19993 17.1999C4.53723 17.1999 4 16.6627 4 16C4 15.3373 4.53723 14.8001 5.19993 14.8001L14.8 14.8L14.8001 5.19995C14.8001 4.53723 15.3373 4 16.0001 4Z" fill="black"/>
</g>
<defs>
<clipPath id="clip0_1050_4727">
<rect width="32" height="32" fill="white"/>
</clipPath>
</defs>
</svg>
