<svg width="32" height="32" viewBox="0 0 32 32" fill="none" xmlns="http://www.w3.org/2000/svg">
<path fill-rule="evenodd" clip-rule="evenodd" d="M15.4006 7.44314C15.4006 6.93838 15.9554 6.69952 16.3116 6.97921L27.2055 15.532C27.503 15.7656 27.503 16.2263 27.2055 16.4599L16.3116 25.0127C15.9554 25.2923 15.4006 25.0535 15.4006 24.5488V19.4233C15.4006 18.7923 14.889 18.2808 14.2578 18.2808C10.1836 18.2808 7.11355 19.9361 4.81938 22.014C5.23184 19.5436 6.1363 17.6635 7.3611 16.2474C9.0723 14.2689 11.5173 13.0705 14.4689 12.5162C15.0092 12.4147 15.4006 11.943 15.4006 11.3934V7.44314ZM17.7234 5.18227C15.8333 3.6984 13.1149 5.07538 13.1149 7.44314V10.4684C10.1844 11.1648 7.56795 12.5147 5.63207 14.753C3.48704 17.233 2.28578 20.6784 2.28578 25.2011C2.28578 25.6887 2.59527 26.1224 3.0563 26.2812C3.51744 26.4401 4.02853 26.2889 4.32887 25.9049C6.31893 23.3611 9.10041 20.9999 13.1149 20.6191V24.5488C13.1149 26.9166 15.8333 28.2935 17.7234 26.8096L28.6173 18.2568C30.08 17.1084 30.08 14.8835 28.6173 13.7351L17.7234 5.18227Z" fill="black"/>
</svg>
