<svg width="40" height="40" viewBox="0 0 40 40" fill="none" xmlns="http://www.w3.org/2000/svg">
<path fill-rule="evenodd" clip-rule="evenodd" d="M10.6651 4.28572H29.3345C30.2914 4.28572 31.0811 4.28572 31.7277 4.32986C32.3981 4.37558 33.0182 4.47343 33.6151 4.72072C35.0152 5.3007 36.1277 6.41313 36.7077 7.81329C36.9549 8.41015 37.0528 9.03029 37.0985 9.70072C37.1548 10.5254 37.1427 11.3546 37.1427 12.1807C37.1427 12.4807 37.1427 12.773 37.1258 13.0217C37.1072 13.2937 37.0637 13.6161 36.9252 13.9506C36.6352 14.6506 36.0789 15.2069 35.3789 15.4969C35.0315 15.6407 34.6587 15.6913 34.2855 15.7061V27.4876C34.2855 28.6376 34.2855 29.5866 34.2224 30.3597C34.1568 31.1627 34.0159 31.9009 33.6627 32.5943C33.1148 33.6694 32.2407 34.5436 31.1655 35.0914C30.4721 35.4447 29.7339 35.5856 28.9309 35.6511C28.1578 35.7143 27.2088 35.7143 26.0588 35.7143H13.9408C12.7908 35.7143 11.8418 35.7143 11.0687 35.6511C10.2657 35.5856 9.52751 35.4447 8.83408 35.0914C7.75892 34.5436 6.88479 33.6694 6.33694 32.5943C5.98365 31.9009 5.8428 31.1627 5.77722 30.3597C5.71408 29.5866 5.71408 28.6376 5.71408 27.4876V15.7061C5.34094 15.6913 4.96808 15.6407 4.62065 15.4969C3.92058 15.2069 3.36438 14.6506 3.07437 13.9506C2.93594 13.6163 2.89237 13.2937 2.8738 13.0217C2.85694 12.7731 2.85694 12.4807 2.85694 12.1807C2.85694 11.195 2.85551 10.3667 2.90108 9.70072C2.9468 9.03029 3.04465 8.41015 3.29194 7.81329C3.57911 7.12 4.00002 6.49005 4.53065 5.95943C5.06127 5.4288 5.69121 5.00789 6.38451 4.72072C6.98137 4.47358 7.60151 4.37558 8.27194 4.32986C8.91851 4.28558 9.70822 4.28558 10.6651 4.28572ZM6.40408 12.8571C6.05122 12.8571 5.85122 12.8554 5.7258 12.8456C5.71565 12.7171 5.71408 12.5114 5.71408 12.1429C5.71408 11.1249 5.7148 10.4329 5.75151 9.89515C5.78737 9.37029 5.85251 9.09729 5.93151 8.90658C6.0751 8.55993 6.28555 8.24496 6.55086 7.97965C6.81618 7.71433 7.13115 7.50388 7.4778 7.36029C7.66851 7.28129 7.94137 7.21615 8.46637 7.18029C9.00408 7.14358 9.69608 7.14286 10.7141 7.14286H29.2855C30.3035 7.14286 30.9955 7.14358 31.5332 7.18029C32.0582 7.21615 32.3311 7.28129 32.5218 7.36029C33.2218 7.65029 33.7781 8.20658 34.0681 8.90658C34.1471 9.09729 34.2122 9.37015 34.2481 9.89515C34.2848 10.4329 34.2855 11.1249 34.2855 12.1429C34.2855 12.5116 34.2839 12.7171 34.2739 12.8456C34.1485 12.8554 33.9487 12.857 33.5957 12.8571H6.40408ZM8.57122 15.7143V27.4286C8.57122 28.6523 8.57237 29.4841 8.62494 30.1271C8.67608 30.7534 8.7688 31.0737 8.88265 31.2971C9.15651 31.8347 9.59365 32.2719 10.1312 32.5457C10.3547 32.6596 10.6749 32.7523 11.3012 32.8034C11.9442 32.856 12.7761 32.8571 13.9998 32.8571H25.9998C27.2235 32.8571 28.0554 32.856 28.6984 32.8034C29.3247 32.7523 29.6449 32.6596 29.8684 32.5457C30.406 32.2718 30.8431 31.8348 31.1169 31.2971C31.2308 31.0737 31.3235 30.7534 31.3748 30.1271C31.4272 29.4841 31.4284 28.6523 31.4284 27.4286V15.7143H8.57122ZM14.2855 21.4286C14.2855 20.6396 14.9251 20 15.7141 20H24.2855C25.0745 20 25.7141 20.6396 25.7141 21.4286C25.7141 22.2176 25.0745 22.8571 24.2855 22.8571H15.7141C14.9251 22.8571 14.2855 22.2176 14.2855 21.4286Z" fill="black"/>
</svg>
