<svg width="24" height="24" viewBox="0 0 24 24" fill="none" xmlns="http://www.w3.org/2000/svg">
<path d="M11.532 4.2591C11.6868 4.41185 11.7812 4.61552 11.7975 4.83244C11.8139 5.04937 11.7511 5.26487 11.6209 5.4391L11.541 5.5319L6.05005 11.1H20.1001C20.3289 11.1002 20.549 11.1875 20.7157 11.3442C20.8825 11.5009 20.9833 11.7152 20.9977 11.9435C21.012 12.1719 20.9389 12.3971 20.7931 12.5735C20.6474 12.7499 20.4399 12.8641 20.213 12.893L20.1001 12.9H6.05005L11.541 18.4681C11.8609 18.7926 11.8841 19.2984 11.6132 19.6493L11.532 19.7409C11.2075 20.0608 10.7016 20.084 10.3508 19.8131L10.2592 19.7319L3.25915 12.6319C3.10781 12.4784 3.01658 12.2757 3.00205 12.0606C2.98752 11.8455 3.05064 11.6324 3.17995 11.4599L3.25915 11.3681L10.2592 4.2681C10.3421 4.18393 10.4409 4.11694 10.5498 4.07093C10.6586 4.02493 10.7755 4.00082 10.8937 3.99998C11.0119 3.99915 11.1291 4.0216 11.2386 4.06606C11.3481 4.11052 11.4478 4.17612 11.532 4.2591Z" fill="white" fill-opacity="1"/>
</svg>
