<svg width="16" height="16" viewBox="0 0 16 16" fill="none" xmlns="http://www.w3.org/2000/svg">
<path d="M12.858 5.49699C12.9554 5.49692 13.0506 5.52524 13.1321 5.5785C13.2135 5.63176 13.2777 5.70763 13.3166 5.79681C13.3556 5.886 13.3677 5.98461 13.3514 6.08056C13.3351 6.17652 13.2912 6.26564 13.225 6.33699L8.36705 11.599C8.32024 11.6496 8.26347 11.69 8.20031 11.7176C8.13716 11.7452 8.06897 11.7594 8.00005 11.7594C7.93112 11.7594 7.86294 11.7452 7.79978 11.7176C7.73663 11.69 7.67986 11.6496 7.63305 11.599L2.77505 6.33599C2.7092 6.2646 2.66556 6.17557 2.64948 6.07978C2.6334 5.984 2.64556 5.8856 2.68449 5.79661C2.72341 5.70763 2.78741 5.6319 2.86867 5.57869C2.94993 5.52549 3.04492 5.4971 3.14205 5.49699H12.858Z" fill="black"/>
</svg>
