<svg width="32" height="32" viewBox="0 0 32 32" fill="none" xmlns="http://www.w3.org/2000/svg">
<g clip-path="url(#clip0_980_3718)">
<path d="M16.2156 12.4536C16.6619 12.0073 17.3856 12.0073 17.8319 12.4536C18.2782 12.9 18.2782 13.6236 17.8319 14.0699L13.064 18.8378C12.416 19.4858 12.3784 20.5766 13.064 21.2622C13.7495 21.9478 14.8403 21.9102 15.4883 21.2622L24.3777 12.3728C26.2081 10.5424 26.1079 7.63814 24.3777 5.90786C22.6474 4.17757 19.7431 4.07743 17.9127 5.90786L9.02334 14.7972C6.10822 17.7123 6.16259 22.442 9.02334 25.3028C11.8841 28.1635 16.6138 28.2179 19.5289 25.3028L24.2969 20.5349C24.7432 20.0886 25.4668 20.0886 25.9131 20.5349C26.3594 20.9812 26.3594 21.7048 25.9131 22.1511L21.1452 26.919C17.329 30.7352 11.1523 30.6642 7.4071 26.919C3.66193 23.1739 3.59093 16.9971 7.4071 13.181L16.2964 4.29161C19.0454 1.54268 23.395 1.69267 25.9939 4.29161C28.5928 6.89055 28.7428 11.2401 25.9939 13.9891L17.1046 22.8784C15.5879 24.3951 13.0518 24.4825 11.4477 22.8784C9.84362 21.2743 9.93107 18.7382 11.4477 17.2216L16.2156 12.4536Z" fill="white"/>
</g>
<defs>
<clipPath id="clip0_980_3718">
<rect width="32" height="32" fill="white"/>
</clipPath>
</defs>
</svg>
