<svg width="55" height="55" viewBox="0 0 55 55" fill="none" xmlns="http://www.w3.org/2000/svg">
<g clip-path="url(#clip0_313_1201)">
<path d="M27.5001 3.92857C40.5183 3.92857 51.0716 14.4819 51.0716 27.5C51.0716 40.5181 40.5183 51.0714 27.5001 51.0714C14.482 51.0714 3.92871 40.5181 3.92871 27.5C3.92871 14.4819 14.482 3.92857 27.5001 3.92857ZM27.5001 40.2679C23.4028 40.2679 19.4859 41.411 16.1136 43.507C19.3251 45.7965 23.2554 47.1429 27.5001 47.1429C31.744 47.1429 35.6735 45.797 38.8852 43.5088C35.5134 41.4108 31.597 40.2679 27.5001 40.2679ZM27.5001 7.85714C16.6517 7.85714 7.85728 16.6515 7.85728 27.5C7.85728 32.6379 9.82993 37.3151 13.0592 40.8155C17.2576 37.9268 22.2574 36.3393 27.5001 36.3393C32.7434 36.3393 37.7437 37.9271 41.9429 40.8128C45.1711 37.3134 47.143 32.637 47.143 27.5C47.143 16.6515 38.3486 7.85714 27.5001 7.85714ZM27.5001 14.7321C32.6547 14.7321 36.8305 18.9079 36.8305 24.0625C36.8305 29.2171 32.6547 33.3929 27.5001 33.3929C22.3455 33.3929 18.1698 29.2171 18.1698 24.0625C18.1698 18.9079 22.3455 14.7321 27.5001 14.7321ZM27.5001 18.6607C24.5152 18.6607 22.0984 21.0776 22.0984 24.0625C22.0984 27.0474 24.5152 29.4643 27.5001 29.4643C30.485 29.4643 32.9019 27.0474 32.9019 24.0625C32.9019 21.0776 30.485 18.6607 27.5001 18.6607Z" fill="#0055FF"/>
</g>
<defs>
<clipPath id="clip0_313_1201">
<rect width="55" height="55" fill="white"/>
</clipPath>
</defs>
</svg>
