<svg width="24" height="24" viewBox="0 0 24 24" fill="none" xmlns="http://www.w3.org/2000/svg">
<path fill-rule="evenodd" clip-rule="evenodd" d="M2.436 4.184C2 5.04 2 6.16 2 8.4V15.6C2 17.84 2 18.96 2.436 19.816C2.81949 20.5686 3.43139 21.1805 4.184 21.564C5.04 22 6.16 22 8.4 22H15.6C17.84 22 18.96 22 19.816 21.564C20.5686 21.1805 21.1805 20.5686 21.564 19.816C22 18.96 22 17.84 22 15.6V8.4C22 6.16 22 5.04 21.564 4.184C21.1805 3.43139 20.5686 2.81949 19.816 2.436C18.96 2 17.84 2 15.6 2H8.4C6.16 2 5.04 2 4.184 2.436C3.43139 2.81949 2.81949 3.43139 2.436 4.184ZM7 11C6.73478 11 6.48043 11.1054 6.29289 11.2929C6.10536 11.4804 6 11.7348 6 12C6 12.2652 6.10536 12.5196 6.29289 12.7071C6.48043 12.8946 6.73478 13 7 13H17C17.2652 13 17.5196 12.8946 17.7071 12.7071C17.8946 12.5196 18 12.2652 18 12C18 11.7348 17.8946 11.4804 17.7071 11.2929C17.5196 11.1054 17.2652 11 17 11H7Z" fill="black"/>
</svg>
