<svg width="40" height="40" viewBox="0 0 40 40" fill="none" xmlns="http://www.w3.org/2000/svg">
<path d="M32.9927 10.7557L29.2498 7.01286L16.4741 19.79C15.6848 20.5793 15.144 21.5825 14.9184 22.6757L14.3784 25.29C14.3689 25.3364 14.371 25.3845 14.3847 25.4299C14.3983 25.4753 14.4231 25.5165 14.4567 25.55C14.4903 25.5834 14.5316 25.608 14.5771 25.6215C14.6225 25.6349 14.6706 25.6369 14.717 25.6271L17.3284 25.0886C18.4221 24.8632 19.4259 24.3224 20.2156 23.5329L32.9927 10.7557ZM34.3798 4.91429C34.181 4.71542 33.9449 4.55766 33.6851 4.45003C33.4253 4.34241 33.1468 4.28701 32.8656 4.28701C32.5843 4.28701 32.3058 4.34241 32.046 4.45003C31.7862 4.55766 31.5501 4.71542 31.3513 4.91429L30.5941 5.67L34.337 9.41143L35.0898 8.65857C35.491 8.25611 35.7162 7.71107 35.7162 7.14286C35.7162 6.57465 35.491 6.0296 35.0898 5.62714L34.3798 4.91429Z" fill="white"/>
<path d="M13.9415 7.14285C12.7915 7.14285 11.8415 7.14285 11.0701 7.20571C10.2658 7.27142 9.52721 7.41285 8.83436 7.76571C7.75919 8.31355 6.88505 9.18769 6.33721 10.2629C5.98436 10.9557 5.84293 11.6943 5.77721 12.4971C5.71436 13.2714 5.71436 14.22 5.71436 15.3686V26.0586C5.71436 27.2086 5.71436 28.1586 5.77721 28.93C5.84293 29.7343 5.98436 30.4729 6.33721 31.1657C6.88505 32.2409 7.75919 33.115 8.83436 33.6629C9.52721 34.0157 10.2658 34.1571 11.0686 34.2229C11.8429 34.2857 12.7915 34.2857 13.9401 34.2857H24.6301C25.7801 34.2857 26.7301 34.2857 27.5015 34.2229C28.3058 34.1571 29.0444 34.0157 29.7372 33.6629C30.8124 33.115 31.6865 32.2409 32.2344 31.1657C32.5872 30.4729 32.7286 29.7343 32.7944 28.9314C32.8572 28.1586 32.8572 27.2086 32.8572 26.06V18.5714C32.8572 18.1925 32.7067 17.8292 32.4388 17.5613C32.1709 17.2934 31.8075 17.1429 31.4286 17.1429C31.0498 17.1429 30.6864 17.2934 30.4185 17.5613C30.1506 17.8292 30.0001 18.1925 30.0001 18.5714V26C30.0001 27.2243 30.0001 28.0557 29.9458 28.6986C29.8958 29.3243 29.8029 29.6457 29.6886 29.8686C29.4147 30.4062 28.9777 30.8432 28.4401 31.1171C28.2172 31.2314 27.8972 31.3243 27.2701 31.3743C26.6272 31.4271 25.7958 31.4286 24.5715 31.4286H14.0001C12.7758 31.4286 11.9444 31.4286 11.3015 31.3743C10.6758 31.3243 10.3544 31.2314 10.1315 31.1171C9.59392 30.8432 9.15685 30.4062 8.88293 29.8686C8.76864 29.6457 8.67578 29.3257 8.62578 28.6971C8.5715 28.0557 8.5715 27.2243 8.5715 26V15.4286C8.5715 14.2043 8.5715 13.3729 8.62578 12.73C8.67578 12.1043 8.76864 11.7829 8.88293 11.56C9.15685 11.0224 9.59392 10.5853 10.1315 10.3114C10.3544 10.1971 10.6744 10.1043 11.3015 10.0543C11.9444 10 12.7758 10 14.0001 10H21.4286C21.8075 10 22.1709 9.84949 22.4388 9.58158C22.7067 9.31367 22.8572 8.9503 22.8572 8.57142C22.8572 8.19254 22.7067 7.82918 22.4388 7.56127C22.1709 7.29336 21.8075 7.14285 21.4286 7.14285H13.9415Z" fill="white"/>
</svg>
