<svg width="40" height="40" viewBox="0 0 40 40" fill="none" xmlns="http://www.w3.org/2000/svg">
<path fill-rule="evenodd" clip-rule="evenodd" d="M16.7029 2.85715C13.2058 2.85715 11.6644 3.16572 10.0986 4.00143C8.71873 4.73351 7.59011 5.86263 6.85864 7.24286C6.02293 8.80715 5.71436 10.3486 5.71436 13.8457V26.1543C5.71436 29.6514 6.02293 31.1929 6.85864 32.7571C7.59019 34.1382 8.71938 35.2678 10.1001 36C11.6658 36.8357 13.2072 37.1443 16.7044 37.1443H23.2986C26.7958 37.1443 28.3372 36.8357 29.9015 36C31.2822 35.2678 32.4114 34.1382 33.1429 32.7571C33.9786 31.1929 34.2872 29.6514 34.2872 26.1543V17.6543C34.2872 16.5171 34.2472 16.0057 34.1129 15.4214C33.9838 14.8525 33.7592 14.3096 33.4486 13.8157C33.1301 13.3071 32.7958 12.9157 31.9915 12.1129L25.0286 5.15286C24.2244 4.34858 23.8344 4.01429 23.3258 3.69572C22.8319 3.38511 22.289 3.1605 21.7201 3.03143C21.2315 2.91858 20.7944 2.87286 19.9986 2.86V2.85715H16.7015H16.7029ZM16.7029 5.71429C13.3672 5.71429 12.3901 6.01715 11.4458 6.52143C10.5642 6.98711 9.84371 7.70809 9.37864 8.59C8.87436 9.53286 8.5715 10.51 8.5715 13.8457V26.1543C8.5715 29.49 8.87436 30.4671 9.37864 31.4114C9.84432 32.293 10.5653 33.0135 11.4472 33.4786C12.3901 33.9829 13.3672 34.2857 16.7029 34.2857H23.2972C26.6329 34.2857 27.6101 33.9829 28.5544 33.4786C29.4359 33.0128 30.1564 32.2919 30.6215 31.41C31.1258 30.4671 31.4286 29.49 31.4286 26.1543V17.6543C31.4286 17.46 31.4286 17.29 31.4258 17.1429H23.5715C22.6243 17.1429 21.7159 16.7666 21.0461 16.0968C20.3763 15.427 20.0001 14.5186 20.0001 13.5714L20.0029 5.71715L19.7515 5.71572L16.7029 5.71429ZM23.0101 7.17286L22.8572 7.02143V13.5714C22.8572 13.7386 22.9157 13.9005 23.0228 14.0289C23.1298 14.1574 23.2785 14.2442 23.4429 14.2743L23.5715 14.2857L30.1244 14.2886C30.0731 14.236 30.0217 14.1837 29.9701 14.1314L23.0101 7.17286ZM12.8572 28.5714C12.8572 28.1926 13.0077 27.8292 13.2756 27.5613C13.5435 27.2934 13.9069 27.1429 14.2858 27.1429H20.0001C20.379 27.1429 20.7423 27.2934 21.0102 27.5613C21.2781 27.8292 21.4286 28.1926 21.4286 28.5714C21.4286 28.9503 21.2781 29.3137 21.0102 29.5816C20.7423 29.8495 20.379 30 20.0001 30H14.2858C13.9069 30 13.5435 29.8495 13.2756 29.5816C13.0077 29.3137 12.8572 28.9503 12.8572 28.5714ZM14.2858 21.4286C13.9069 21.4286 13.5435 21.5791 13.2756 21.847C13.0077 22.1149 12.8572 22.4783 12.8572 22.8571C12.8572 23.236 13.0077 23.5994 13.2756 23.8673C13.5435 24.1352 13.9069 24.2857 14.2858 24.2857H24.2858C24.6647 24.2857 25.028 24.1352 25.2959 23.8673C25.5638 23.5994 25.7144 23.236 25.7144 22.8571C25.7144 22.4783 25.5638 22.1149 25.2959 21.847C25.028 21.5791 24.6647 21.4286 24.2858 21.4286H14.2858Z" fill="black"/>
</svg>
