<svg width="32" height="32" viewBox="0 0 32 32" fill="none" xmlns="http://www.w3.org/2000/svg">
<rect width="32" height="32" rx="6" fill="#0055FF"/>
<path d="M9.38646 4.94775C6.24548 5.59193 5.05893 6.2361 2.96494 8.49072C1.75916 9.7889 0.394837 10 1.35955 12.2269C2.05755 12.2269 2.28933 13.4018 2.28933 14.9478C2.28933 16.1717 2.54614 16.9478 2.96494 16.9478C3.52333 16.9478 3.80253 15.8988 3.52333 14.1595C3.03473 11.3251 3.66292 10.8098 5.05891 12.9355C5.75691 13.9018 6.45489 14.1595 7.85088 13.9018C9.17708 13.5797 9.89385 13.8527 11.3596 14.9478L13.2893 16.4478L10.3596 18.9478L6.94349 21.7608L7.15289 18.2822C7.36229 15.9632 6.91804 14.4816 6.35964 14.4816C5.87105 14.4816 5.64973 16.549 5.78933 19.4478L5.85964 23.4478L16.7154 23.5H27.3947L27.2893 20.4478L27.3947 16.7362C27.7893 12.7362 27.8477 10.0275 27.2893 9.44779C26.3121 8.35269 13.7893 8.41711 13.7893 9.44779C13.7893 9.8343 16.0872 10.2944 19.647 10.2944H25.6497L21.5315 13.8374C19.2979 15.7699 17.0644 17.3159 16.6456 17.3804C16.2966 17.3804 15.4764 16.5429 14.3596 15.4478C13.2428 14.3527 11.9878 12.9355 11.3596 12.9355C11.1314 12.7121 11.1673 12.9355 11.8947 12.2269C13.1511 11.003 12.9462 9.97233 12.5972 8.68398C12.318 7.65329 12.4576 6.5582 12.9462 6.04285C14.3422 4.43241 13.2952 4.11032 9.38646 4.94775ZM26.3477 16.7362V21.4478L23.4161 19.3129L19.9959 16.6718L22.9275 14.1595C24.4631 12.7423 25.9987 11.5828 26.3477 11.5828C26.6269 11.5828 26.3477 13.8374 26.3477 16.7362ZM15.4471 18.2822C16.1451 18.9264 16.8052 18.9264 17.9219 18.2822C19.1783 17.5092 19.5771 17.5736 22.3691 19.8926L24.8596 21.954L16.8596 21.9478H8.85964L11.1314 19.9571C14.1328 17.1227 14.2605 17.1871 15.4471 18.2822Z" fill="white"/>
</svg>
