<svg width="40" height="40" viewBox="0 0 40 40" fill="none" xmlns="http://www.w3.org/2000/svg">
<path fill-rule="evenodd" clip-rule="evenodd" d="M14.1026 4.40428C13.6041 4.28428 13.0926 4.28571 12.5112 4.28571H12.2255C10.8769 4.28571 9.77693 4.28571 8.8855 4.35856C7.96265 4.43428 7.13693 4.59428 6.36693 4.98713C5.15722 5.60315 4.17356 6.5863 3.55693 7.79571C3.16551 8.56571 3.00551 9.39142 2.92979 10.3143C2.85693 11.2057 2.85693 12.3057 2.85693 13.6543V24.9171C2.85693 26.2671 2.85693 27.3657 2.92979 28.2571C3.00551 29.18 3.1655 30.0057 3.55836 30.7757C4.17437 31.9854 5.15753 32.9691 6.36693 33.5857C7.13693 33.9771 7.96265 34.1371 8.8855 34.2128C9.77693 34.2857 10.8769 34.2857 12.2255 34.2857H27.7741C29.1241 34.2857 30.2226 34.2857 31.1141 34.2128C32.0369 34.1371 32.8626 33.9771 33.6326 33.5843C34.8418 32.968 35.825 31.9849 36.4412 30.7757C36.8341 30.0057 36.9941 29.18 37.0698 28.2571C37.1426 27.3657 37.1426 26.2671 37.1426 24.9171V17.94C37.1426 16.5914 37.1426 15.4914 37.0698 14.6C36.9941 13.6771 36.8341 12.8514 36.4412 12.0814C35.825 10.8722 34.8418 9.8891 33.6326 9.27285C32.8626 8.87999 32.0369 8.71999 31.1141 8.64428C30.2226 8.57142 29.1226 8.57142 27.7741 8.57142H20.4641C19.6984 8.57142 19.5469 8.56285 19.4212 8.53142C19.275 8.49644 19.1351 8.43858 19.0069 8.35999C18.8984 8.29285 18.7841 8.19285 18.2426 7.65142L16.5512 5.95714C16.1398 5.54571 15.7784 5.18285 15.3412 4.91571C14.9579 4.68034 14.5399 4.50679 14.1026 4.40142V4.40428ZM12.3926 7.14285C13.1584 7.14285 13.3098 7.15142 13.4355 7.18285C13.5818 7.21783 13.7216 7.27569 13.8498 7.35428C13.9598 7.42142 14.0726 7.52142 14.6141 8.06285L16.3055 9.75571C16.7169 10.1671 17.0784 10.53 17.5155 10.7971C17.8988 11.0325 18.3168 11.2061 18.7541 11.3114C19.2512 11.43 19.7641 11.4286 20.3455 11.4286H27.7141C29.1384 11.4286 30.1198 11.4286 30.8812 11.4914C31.6269 11.5528 32.0355 11.6657 32.3355 11.8186C33.0071 12.1609 33.5532 12.707 33.8955 13.3786C34.0484 13.6786 34.1612 14.0871 34.2226 14.8328C34.2441 15.0971 34.2584 15.3871 34.2669 15.7143H5.71408V13.7143C5.71408 12.29 5.71408 11.3086 5.77693 10.5471C5.83836 9.80142 5.95122 9.39285 6.10265 9.09285C6.44535 8.42103 6.99194 7.87494 7.66408 7.53285C7.96408 7.37999 8.37265 7.26714 9.11836 7.20571C9.87979 7.14428 10.8612 7.14285 12.2855 7.14285H12.3926ZM5.71408 18.5714V24.8571C5.71408 26.2814 5.71408 27.2628 5.77693 28.0243C5.83836 28.77 5.95122 29.1786 6.10265 29.4786C6.44511 30.1509 6.99172 30.6975 7.66408 31.04C7.96408 31.1914 8.37265 31.3043 9.11836 31.3657C9.87979 31.4271 10.8612 31.4286 12.2855 31.4286H27.7141C29.1384 31.4286 30.1198 31.4286 30.8812 31.3657C31.6269 31.3043 32.0355 31.1914 32.3355 31.04C33.0073 30.6973 33.5534 30.1507 33.8955 29.4786C34.0484 29.1786 34.1612 28.77 34.2226 28.0243C34.2841 27.2628 34.2855 26.2814 34.2855 24.8571V18.5714H5.71408Z" fill="black"/>
</svg>
