<svg width="40" height="40" viewBox="0 0 40 40" fill="none" xmlns="http://www.w3.org/2000/svg">
<g clip-path="url(#clip0_337_886)">
<path d="M28.3063 5.71428C30.0271 5.71428 30.8833 5.85084 31.8047 6.25823C32.6675 6.63969 33.3892 7.21863 33.9487 7.9781C34.5463 8.78917 34.8654 9.59537 35.2387 11.2753L37.1086 19.6901L37.1426 20V25.5318C37.1426 28.0697 36.9024 29.314 36.2106 30.6076C35.5794 31.7877 34.6447 32.7225 33.4645 33.3536C32.1709 34.0454 30.9267 34.2857 28.3887 34.2857H11.6109C9.07289 34.2857 7.82864 34.0454 6.53509 33.3536C5.35492 32.7225 4.42017 31.7877 3.78901 30.6076C3.09721 29.314 2.85693 28.0697 2.85693 25.5318V20L2.89095 19.6901L4.76091 11.2753C5.13422 9.59537 5.45327 8.78917 6.05083 7.9781C6.61038 7.21863 7.33209 6.63969 8.19485 6.25823C9.11624 5.85084 9.97245 5.71428 11.6933 5.71428H28.3063ZM5.71408 25.5318C5.71408 27.6384 5.8683 28.4371 6.30847 29.2601C6.67335 29.9424 7.20025 30.4693 7.88252 30.8342C8.70556 31.2743 9.50422 31.4286 11.6109 31.4286H28.3887C30.4954 31.4286 31.294 31.2743 32.1171 30.8342C32.7993 30.4693 33.3262 29.9424 33.6911 29.2601C34.1313 28.4371 34.2855 27.6384 34.2855 25.5318V21.4286H26.9998C26.3379 24.6889 23.4554 27.1429 19.9998 27.1429C16.5441 27.1429 13.6616 24.6889 12.9998 21.4286H5.71408V25.5318ZM28.6042 8.57282L11.6933 8.57142C10.3368 8.57142 9.85463 8.64832 9.35023 8.87134C8.94255 9.05159 8.61548 9.31396 8.35108 9.67283C8.02396 10.1168 7.8443 10.5708 7.55002 11.8951L6.0655 18.5714H14.2855C15.0181 18.5714 15.6219 19.1229 15.7045 19.8334L15.7141 20C15.7141 22.3669 17.6329 24.2857 19.9998 24.2857C22.3667 24.2857 24.2855 22.3669 24.2855 20C24.2855 19.211 24.9251 18.5714 25.7141 18.5714H33.9326L32.4496 11.8951C32.1553 10.5708 31.9756 10.1168 31.6485 9.67283C31.3841 9.31396 31.057 9.05159 30.6493 8.87134C30.1837 8.66548 29.7371 8.58412 28.6042 8.57282Z" fill="black"/>
</g>
<defs>
<clipPath id="clip0_337_886">
<rect width="40" height="40" fill="white"/>
</clipPath>
</defs>
</svg>
