<svg width="32" height="32" viewBox="0 0 32 32" fill="none" xmlns="http://www.w3.org/2000/svg">
<g clip-path="url(#clip0_1050_6726)">
<path d="M16.0001 2.28564C19.7872 2.28564 22.8572 5.35569 22.8572 9.14279L22.8596 11.4545C23.8228 11.5142 24.4373 11.6827 25.0708 12.0215C25.8287 12.4268 26.4303 13.0285 26.8357 13.7864C27.2759 14.6095 27.4287 15.4007 27.4287 16.9666V24.1761C27.4287 25.7421 27.2759 26.5332 26.8357 27.3563C26.4303 28.1142 25.8287 28.7159 25.0708 29.1212C24.2476 29.5614 23.4565 29.7142 21.8906 29.7142H10.1096C8.54369 29.7142 7.75258 29.5614 6.9294 29.1212C6.17151 28.7159 5.56987 28.1142 5.16455 27.3563C4.7243 26.5332 4.57153 25.7421 4.57153 24.1761V16.9666C4.57153 15.4007 4.7243 14.6095 5.16455 13.7864C5.56987 13.0285 6.17151 12.4268 6.9294 12.0215C7.56314 11.6826 8.17787 11.514 9.14176 11.4544L9.14296 9.14279C9.14296 5.35569 12.213 2.28564 16.0001 2.28564ZM21.8906 13.7142H10.1096C8.88875 13.7142 8.45412 13.7981 8.00734 14.0371C7.64777 14.2294 7.37242 14.5047 7.18012 14.8643C6.94118 15.3111 6.85725 15.7457 6.85725 16.9666V24.1761C6.85725 25.397 6.94118 25.8316 7.18012 26.2784C7.37242 26.638 7.64777 26.9133 8.00734 27.1056C8.45412 27.3446 8.88875 27.4285 10.1096 27.4285H21.8906C23.1115 27.4285 23.5461 27.3446 23.9929 27.1056C24.3524 26.9133 24.6278 26.638 24.8201 26.2784C25.059 25.8316 25.143 25.397 25.143 24.1761V16.9666C25.143 15.7457 25.059 15.3111 24.8201 14.8643C24.6278 14.5047 24.3524 14.2294 23.9929 14.0371C23.5461 13.7981 23.1115 13.7142 21.8906 13.7142ZM16.0001 17.1428C16.6313 17.1428 17.143 17.6545 17.143 18.2856V21.7142C17.143 22.3454 16.6313 22.8571 16.0001 22.8571C15.3689 22.8571 14.8572 22.3454 14.8572 21.7142V18.2856C14.8572 17.6545 15.3689 17.1428 16.0001 17.1428ZM16.0001 4.57136C13.4754 4.57136 11.4287 6.61806 11.4287 9.14279V11.4285H20.5715V9.14279C20.5715 6.61806 18.5248 4.57136 16.0001 4.57136Z" fill="black"/>
</g>
<defs>
<clipPath id="clip0_1050_6726">
<rect width="32" height="32" fill="white"/>
</clipPath>
</defs>
</svg>
