<svg width="72" height="70" viewBox="0 0 72 70" fill="none" xmlns="http://www.w3.org/2000/svg">
<path d="M23.3102 8.86759C15.3269 10.6105 12.311 12.3533 6.98882 18.4534C-0.284838 26.645 -0.994464 28.5621 2.90848 28.5621C4.68254 28.5621 5.56957 30.4793 5.56957 34.6622C5.56957 37.9737 6.4566 40.7623 7.52104 40.7623C8.94029 40.7623 9.1177 38.4965 8.40808 33.7908C7.16623 26.1221 8.76289 24.7278 12.311 30.4793C14.0851 33.0936 15.8591 33.7908 19.4073 33.0936C22.778 32.2222 25.6165 33.0936 29.342 36.0565L34.3094 40.0651L25.7939 47.2109L17.101 54.3567L17.6332 44.9452C18.1654 38.6708 17.6332 35.5336 16.214 35.5336C14.9721 35.5336 14.4399 39.368 14.7947 47.2109L15.3269 59.0625H41.9379H68.5488L69.0811 41.808C69.4359 30.6536 68.9037 23.8563 67.4844 22.2878C65.0007 19.3249 33.9546 18.802 33.9546 21.5906C33.9546 22.6363 40.3412 23.3335 49.389 23.3335H64.6459L54.1789 32.9193C48.5019 38.148 42.8249 42.3309 41.7605 42.5052C40.8734 42.5052 37.6801 40.2394 34.8416 37.2765C32.0031 34.3136 28.6324 32.0479 27.0357 32.0479C25.0843 32.0479 25.6165 31.0022 28.455 27.865C31.6483 24.5535 32.3579 22.462 31.4709 18.9763C30.7613 16.1877 31.1161 13.2248 32.3579 11.8305C35.9061 7.47329 33.245 6.60185 23.3102 8.86759ZM67.6618 40.9366V54.8796L58.9689 47.7338L50.276 40.588L57.7271 33.7908C61.63 29.9564 65.5329 26.8192 66.42 26.8192C67.1296 26.8192 67.6618 33.0936 67.6618 40.9366ZM38.922 44.5966C40.696 46.3395 41.9379 46.3395 44.7764 44.5966C47.9697 42.5052 49.2115 43.028 56.3078 49.3024L64.1137 56.4482H42.4701H20.8265L27.7454 49.4767C35.3738 41.808 35.9061 41.6337 38.922 44.5966Z" fill="#0055FF"/>
</svg>
