<svg width="40" height="40" viewBox="0 0 40 40" fill="none" xmlns="http://www.w3.org/2000/svg">
<g clip-path="url(#clip0_135_239)">
<path d="M11.6111 5.71429L28.8237 5.71683C31.0735 5.74412 32.2473 5.99526 33.4647 6.64637C34.6449 7.27753 35.5797 8.21228 36.2108 9.39245C36.9026 10.686 37.1429 11.9303 37.1429 14.4683V25.5318C37.1429 28.0698 36.9026 29.314 36.2108 30.6076C35.5797 31.7877 34.6449 32.7225 33.4647 33.3536C32.1712 34.0454 30.9269 34.2857 28.3889 34.2857H11.6111C9.07314 34.2857 7.82888 34.0454 6.53533 33.3536C5.35516 32.7225 4.42042 31.7877 3.78925 30.6076C3.09745 29.314 2.85718 28.0698 2.85718 25.5318L2.85971 14.0335C2.88701 11.7837 3.13815 10.6099 3.78925 9.39245C4.42042 8.21228 5.35516 7.27753 6.53533 6.64637C7.82888 5.95457 9.07314 5.71429 11.6111 5.71429ZM33.8389 11.04L24.0406 20.8368C21.8835 22.994 18.4307 23.0659 16.1871 21.0526L15.9594 20.8368L6.16122 11.04C5.83347 11.7754 5.71432 12.6166 5.71432 14.4683V25.5318C5.71432 27.6384 5.86855 28.4371 6.30872 29.2601C6.6736 29.9424 7.2005 30.4693 7.88276 30.8342C8.60898 31.2226 9.31621 31.3883 10.9197 31.422L11.6111 31.4286H28.3889C30.4956 31.4286 31.2943 31.2744 32.1173 30.8342C32.7996 30.4693 33.3265 29.9424 33.6913 29.2601C34.0797 28.5339 34.2455 27.8267 34.2791 26.2232L34.2857 25.5318V14.4683C34.2857 12.6166 34.1666 11.7754 33.8389 11.04ZM28.3889 8.57144H11.6111C9.75946 8.57144 8.91831 8.69059 8.18292 9.01833L17.9797 18.8165C19.0368 19.8736 20.716 19.9292 21.8386 18.9834L22.0203 18.8165L31.8172 9.01833C31.0818 8.69059 30.2406 8.57144 28.3889 8.57144Z" fill="black"/>
</g>
<defs>
<clipPath id="clip0_135_239">
<rect width="40" height="40" fill="white"/>
</clipPath>
</defs>
</svg>
