<svg width="32" height="32" viewBox="0 0 32 32" fill="none" xmlns="http://www.w3.org/2000/svg">
<path fill-rule="evenodd" clip-rule="evenodd" d="M6.66672 6.66648C7.89113 5.43906 9.34596 4.46562 10.9477 3.80206C12.5493 3.1385 14.2664 2.7979 16.0001 2.79981C19.6454 2.79981 22.9467 4.27981 25.3334 6.66648C26.5608 7.89089 27.5342 9.34572 28.1978 10.9474C28.8614 12.5491 29.202 14.2661 29.2001 15.9998C29.2001 18.5771 28.3867 20.3758 26.8401 21.3878C25.4094 22.3238 23.6187 22.4051 21.9681 22.2291C21.3761 22.1665 20.7841 22.1011 20.1921 22.0398C19.3161 21.9798 18.9281 22.2265 18.7747 22.4131C18.6201 22.5998 18.4494 23.0265 18.6721 23.8745C18.7414 24.1371 18.8174 24.3785 18.9014 24.6478L19.0414 25.0998C19.1852 25.5747 19.2159 26.0766 19.1309 26.5654C19.0459 27.0543 18.8477 27.5164 18.5521 27.9149C18.2565 28.3134 17.8718 28.6372 17.4286 28.8603C16.9854 29.0834 16.4962 29.1997 16.0001 29.1998C14.2664 29.2017 12.5493 28.8611 10.9477 28.1976C9.34596 27.534 7.89113 26.5606 6.66672 25.3331C5.43931 24.1087 4.46587 22.6539 3.80231 21.0522C3.13875 19.4505 2.79814 17.7335 2.80006 15.9998C2.80006 12.3545 4.28006 9.05315 6.66672 6.66648ZM16.0001 5.19981C13.0174 5.19981 10.3201 6.40781 8.36272 8.36248C7.35823 9.36424 6.56169 10.5547 6.01893 11.8654C5.47616 13.1761 5.19787 14.5812 5.20006 15.9998C5.20006 18.9825 6.40806 21.6798 8.36272 23.6358C9.36438 24.6405 10.5548 25.4373 11.8655 25.9803C13.1762 26.5233 14.5813 26.8018 16.0001 26.7998C16.1216 26.7998 16.2414 26.7714 16.35 26.7167C16.4585 26.6621 16.5528 26.5829 16.6253 26.4853C16.6977 26.3877 16.7463 26.2745 16.7671 26.1548C16.788 26.0351 16.7806 25.9121 16.7454 25.7958C16.7092 25.6769 16.6723 25.5583 16.6347 25.4398C16.5326 25.1234 16.4379 24.8046 16.3507 24.4838C16.0094 23.1825 16.1107 21.8651 16.9254 20.8825C17.7387 19.8985 19.0147 19.5531 20.3561 19.6451C20.4307 19.6505 20.9721 19.7091 21.9534 19.8145L22.2254 19.8438C23.6587 19.9971 24.7854 19.8651 25.5254 19.3798C26.1734 18.9558 26.8001 18.0731 26.8001 15.9998C26.8001 13.0171 25.5921 10.3198 23.6374 8.36248C22.6356 7.35799 21.4452 6.56145 20.1345 6.01868C18.8238 5.47591 17.4187 5.19762 16.0001 5.19981Z" fill="black"/>
<path d="M17.3333 9.86667C17.3333 9.3716 17.5299 8.8968 17.88 8.54673C18.2301 8.19667 18.7049 8 19.1999 8C19.695 8 20.1698 8.19667 20.5199 8.54673C20.8699 8.8968 21.0666 9.3716 21.0666 9.86667C21.0666 10.3617 20.8699 10.8365 20.5199 11.1866C20.1698 11.5367 19.695 11.7333 19.1999 11.7333C18.7049 11.7333 18.2301 11.5367 17.88 11.1866C17.5299 10.8365 17.3333 10.3617 17.3333 9.86667ZM20.9999 15.2C20.9999 14.7049 21.1966 14.2301 21.5467 13.8801C21.8967 13.53 22.3715 13.3333 22.8666 13.3333C23.3617 13.3333 23.8365 13.53 24.1865 13.8801C24.5366 14.2301 24.7333 14.7049 24.7333 15.2C24.7333 15.6951 24.5366 16.1699 24.1865 16.5199C23.8365 16.87 23.3617 17.0667 22.8666 17.0667C22.3715 17.0667 21.8967 16.87 21.5467 16.5199C21.1966 16.1699 20.9999 15.6951 20.9999 15.2ZM7.2666 15.2C7.2666 14.7049 7.46327 14.2301 7.81334 13.8801C8.1634 13.53 8.6382 13.3333 9.13327 13.3333C9.62834 13.3333 10.1031 13.53 10.4532 13.8801C10.8033 14.2301 10.9999 14.7049 10.9999 15.2C10.9999 15.6951 10.8033 16.1699 10.4532 16.5199C10.1031 16.87 9.62834 17.0667 9.13327 17.0667C8.6382 17.0667 8.1634 16.87 7.81334 16.5199C7.46327 16.1699 7.2666 15.6951 7.2666 15.2ZM10.6666 9.86667C10.6666 9.3716 10.8633 8.8968 11.2133 8.54673C11.5634 8.19667 12.0382 8 12.5333 8C13.0283 8 13.5031 8.19667 13.8532 8.54673C14.2033 8.8968 14.3999 9.3716 14.3999 9.86667C14.3999 10.3617 14.2033 10.8365 13.8532 11.1866C13.5031 11.5367 13.0283 11.7333 12.5333 11.7333C12.0382 11.7333 11.5634 11.5367 11.2133 11.1866C10.8633 10.8365 10.6666 10.3617 10.6666 9.86667Z" fill="black"/>
</svg>
