<svg width="24" height="24" viewBox="0 0 24 24" fill="none" xmlns="http://www.w3.org/2000/svg">
<path d="M11.1426 1.58947C11.4028 1.58947 11.6528 1.69274 11.8369 1.87658L14.4092 4.44884C14.5931 4.63299 14.6963 4.88292 14.6963 5.14318C14.6962 5.40348 14.5932 5.65342 14.4092 5.83752L11.8369 8.40881L11.8359 8.40978C11.6507 8.58869 11.402 8.68839 11.1445 8.68615C10.8872 8.68379 10.641 8.58005 10.459 8.39806C10.277 8.21603 10.1742 7.96989 10.1719 7.71252C10.1696 7.455 10.2684 7.20634 10.4473 7.02111L10.4482 7.02013L11.3057 6.16174C9.90539 6.30677 8.58266 6.88669 7.52637 7.8258C6.38609 8.83966 5.62317 10.2108 5.36426 11.7145C5.10537 13.2181 5.3651 14.7654 6.10059 16.1022C6.83612 17.439 8.00433 18.4867 9.41309 19.0729C10.8217 19.6589 12.3879 19.7491 13.8545 19.3287C15.3212 18.9082 16.6022 18.001 17.4863 16.7574C18.3702 15.514 18.8052 14.0072 18.7207 12.484C18.6362 10.9605 18.0368 9.51076 17.0205 8.37267C16.9346 8.27656 16.8688 8.16428 16.8262 8.04259C16.7835 7.92085 16.7643 7.79153 16.7715 7.66271C16.7787 7.53406 16.8113 7.40775 16.8672 7.29162C16.923 7.17553 17.0017 7.07189 17.0977 6.98595C17.1938 6.89995 17.306 6.83332 17.4277 6.79064C17.5495 6.74796 17.6788 6.72977 17.8076 6.73693C18.0674 6.75144 18.3107 6.86837 18.4844 7.06213H18.4854C19.9121 8.65466 20.6991 10.7189 20.6963 12.857C20.6963 17.6601 16.803 21.5533 12 21.5533C7.19703 21.5533 3.30371 17.66 3.30371 12.857C3.30376 8.26752 6.85994 4.50988 11.3672 4.18517L10.4482 3.26623V3.2672C10.3569 3.17599 10.2848 3.0671 10.2354 2.94787C10.186 2.82868 10.1602 2.70091 10.1602 2.57189C10.1602 2.44289 10.186 2.31509 10.2354 2.19592C10.2848 2.07669 10.3569 1.96779 10.4482 1.87658C10.6323 1.69258 10.8823 1.58958 11.1426 1.58947Z" fill="black" stroke="black" stroke-width="0.25"/>
</svg>
