<svg width="32" height="32" viewBox="0 0 32 32" fill="none" xmlns="http://www.w3.org/2000/svg">
<path fill-rule="evenodd" clip-rule="evenodd" d="M16.5994 7.44314C16.5994 6.93838 16.0446 6.69952 15.6884 6.97921L4.79451 15.532C4.49697 15.7656 4.49697 16.2263 4.79451 16.4599L15.6884 25.0127C16.0446 25.2923 16.5994 25.0535 16.5994 24.5488V19.4233C16.5994 18.7923 17.111 18.2808 17.7422 18.2808C21.8164 18.2808 24.8864 19.9361 27.1806 22.014C26.7682 19.5436 25.8637 17.6635 24.6389 16.2474C22.9277 14.2689 20.4827 13.0705 17.5311 12.5162C16.9908 12.4147 16.5994 11.943 16.5994 11.3934V7.44314ZM14.2766 5.18227C16.1667 3.6984 18.8851 5.07538 18.8851 7.44314V10.4684C21.8156 11.1648 24.432 12.5147 26.3679 14.753C28.513 17.233 29.7142 20.6784 29.7142 25.2011C29.7142 25.6887 29.4047 26.1224 28.9437 26.2812C28.4826 26.4401 27.9715 26.2889 27.6711 25.9049C25.6811 23.3611 22.8996 20.9999 18.8851 20.6191V24.5488C18.8851 26.9166 16.1667 28.2935 14.2766 26.8096L3.38272 18.2568C1.91995 17.1084 1.91995 14.8835 3.38272 13.7351L14.2766 5.18227Z" fill="black"/>
</svg>
