<svg width="40" height="40" viewBox="0 0 40 40" fill="none" xmlns="http://www.w3.org/2000/svg">
<path d="M7.9252 5.60715C6.8751 7.00728 6.96469 7.724 7.70693 10.693C8.07197 12.1531 8.67051 13.9332 9.50354 16.0533L9.72897 16.621L9.85867 16.924C10.4034 18.1206 11.2559 19.1246 12.306 19.8496L12.5331 19.9986L12.3058 20.1489C11.1692 20.9333 10.2642 22.0441 9.73259 23.3694C8.779 25.7466 8.10427 27.7177 7.70693 29.307L7.53996 29.9853C7.00451 32.2094 6.99159 32.9227 7.7668 34.1619C8.61473 35.5174 10.0093 35.8947 11.3932 35.6439C11.9632 35.5406 12.549 35.3323 13.2619 35.005L13.8841 34.706L14.8599 34.1997C18.7258 32.1504 28.9021 26.4223 31.9492 24.5934L33.2406 23.8083C33.6604 23.5456 33.9199 23.3682 34.2019 23.1566C35.3285 22.3114 36.0134 21.4384 36.0145 20.0026C36.0156 18.565 35.3305 17.6901 34.2034 16.844L33.9932 16.6897C33.6051 16.4119 33.1728 16.142 32.2222 15.5697L31.4138 15.087C27.4028 12.7181 16.4734 6.5886 13.8994 5.30165C12.9776 4.84075 12.2747 4.55238 11.6176 4.4022C10.2488 4.08932 8.88354 4.32936 7.9252 5.60715ZM10.4788 10L10.3122 9.31255C9.80194 7.10729 9.99613 6.5831 12.3837 7.73995L12.6216 7.85715C15.4788 9.28572 27.4431 16.0324 30.4788 17.8553L31.6261 18.552C33.6678 19.8263 33.6678 20.1736 31.6261 21.4473L30.4788 22.1436C27.6794 23.8239 16.0649 30.3833 12.847 32.0289L12.3837 32.26L11.9362 32.4684C9.76994 33.4301 9.82694 32.6073 10.4788 30C10.84 28.5551 11.4752 26.6996 12.3843 24.4332C12.9134 23.1142 14.0587 22.1493 15.4344 21.8446L15.7125 21.7924L17.1036 21.5734C21.2585 20.9004 23.3359 20.376 23.3359 20C23.3359 19.5843 20.7946 18.9864 15.7119 18.2067C14.3076 17.9913 13.1078 17.0954 12.4983 15.8253L12.3844 15.5664L12.1628 15.0084C11.3712 12.9939 10.8099 11.3244 10.4788 10Z" fill="black"/>
</svg>
