<svg width="40" height="40" viewBox="0 0 40 40" fill="none" xmlns="http://www.w3.org/2000/svg">
<g clip-path="url(#clip0_313_1207)">
<path d="M21.6401 2.91535C22.2509 3.01307 22.8287 3.24678 23.3475 3.6618C24.1973 4.34168 24.602 5.19871 24.9148 6.4499C24.9949 6.77021 25.1334 7.14361 25.3066 7.50601C25.7039 7.6749 26.0925 7.86262 26.4713 8.06843C26.8453 7.97604 27.2044 7.85335 27.4912 7.71985C29.5086 6.78063 31.2011 6.82998 32.5871 8.32491C32.7044 8.45135 32.7744 8.53512 32.9267 8.72318L33.8257 9.83339C34.0675 10.132 34.1708 10.268 34.3233 10.5219C35.3117 12.1668 34.9263 13.6987 33.677 15.3587C33.4697 15.6341 33.2581 15.9947 33.081 16.3741C33.1927 16.7777 33.2857 17.187 33.3597 17.6008C33.6779 17.8558 34.0161 18.0792 34.3149 18.2316C35.4636 18.8178 36.2077 19.405 36.6789 20.386C36.9666 20.9848 37.0644 21.6004 37.0222 22.2175C36.9999 22.5436 36.9647 22.7254 36.8707 23.1326L36.5493 24.5245C36.4553 24.9316 36.4073 25.1105 36.2843 25.4134C36.0517 25.9866 35.694 26.4969 35.173 26.9091C34.3193 27.5842 33.3932 27.7857 32.1037 27.8091C31.7776 27.815 31.3878 27.8649 31 27.9503C30.7479 28.2986 30.4795 28.6348 30.1956 28.9577C30.2005 29.3494 30.2394 29.7343 30.3061 30.0491C30.5735 31.3108 30.5854 32.2585 30.1196 33.2422C29.8353 33.8426 29.4184 34.3059 28.9123 34.6615C28.6448 34.8495 28.4813 34.9365 28.1058 35.1196L26.8218 35.7459C26.4462 35.929 26.277 36.0043 25.9642 36.0994C25.3724 36.2793 24.7507 36.3225 24.1025 36.1769C23.0406 35.9384 22.3011 35.3455 21.4715 34.3581C21.2522 34.097 20.9525 33.813 20.6267 33.5572C20.4184 33.5667 20.2095 33.5714 20.0001 33.5714C19.7907 33.5714 19.5818 33.5667 19.3735 33.5572C19.0477 33.813 18.748 34.097 18.5287 34.3581C17.6991 35.3455 16.9597 35.9384 15.8978 36.1769C15.2496 36.3225 14.6278 36.2793 14.036 36.0994C13.7232 36.0043 13.554 35.929 13.1785 35.7459L11.8945 35.1196C11.7816 35.0647 11.7116 35.03 11.6298 34.9874C9.75612 34.0117 9.20685 32.3488 9.69413 30.0491C9.76084 29.7343 9.79978 29.3494 9.80464 28.9577C9.52079 28.6348 9.25232 28.2986 9.00022 27.9503C8.61247 27.8649 8.22269 27.815 7.8965 27.8091C6.60701 27.7857 5.68091 27.5842 4.82728 26.9091C4.30619 26.4969 3.94851 25.9866 3.71589 25.4134C3.59294 25.1105 3.54493 24.9316 3.45094 24.5245L3.12958 23.1326C3.03007 22.7015 2.99341 22.5093 2.97453 22.1601C2.93915 21.5053 3.06444 20.8549 3.39677 20.2378C3.88098 19.3386 4.5977 18.7867 5.68537 18.2316C5.98411 18.0792 6.32236 17.8558 6.64058 17.6008C6.71451 17.187 6.80753 16.7777 6.91922 16.3741C6.74217 15.9947 6.53053 15.6341 6.32325 15.3587C5.07398 13.6987 4.68859 12.1668 5.67695 10.5219C5.82948 10.268 5.93277 10.132 6.17455 9.83339L7.07358 8.72318C7.22588 8.53512 7.29587 8.45135 7.4131 8.32491C8.7991 6.82998 10.4916 6.78063 12.5091 7.71985C12.7958 7.85335 13.155 7.97604 13.5289 8.06843C13.9077 7.86262 14.2964 7.6749 14.6936 7.50601C14.8668 7.14361 15.0054 6.77021 15.0854 6.4499C15.3982 5.19871 15.8029 4.34168 16.6528 3.6618C17.1716 3.24678 17.7493 3.01307 18.3601 2.91535C18.6184 2.87403 18.7885 2.86157 19.0601 2.85824L20.7144 2.85714C21.1322 2.85714 21.3173 2.86369 21.6401 2.91535ZM20.8368 5.71458L19.2858 5.71429C18.5715 5.71429 18.2144 5.71429 17.8573 7.14286C17.659 7.93582 17.2407 8.94885 16.6634 9.81549C15.7454 10.1161 14.8821 10.5373 14.0921 11.0604C13.0681 10.9595 12.0348 10.6506 11.3032 10.3101C9.96827 9.68858 9.74352 9.96614 9.294 10.5212L8.39497 11.6314C7.94546 12.1866 7.7207 12.4641 8.60615 13.6407C9.10452 14.3029 9.63634 15.2834 9.94475 16.2922C9.62894 17.1484 9.41936 18.0559 9.33198 18.999C8.61539 19.7622 7.71632 20.4028 6.98409 20.7765C5.67247 21.4459 5.75281 21.7939 5.91349 22.4898L6.23485 23.8818C6.39553 24.5778 6.47587 24.9258 7.94817 24.9524C8.7622 24.9671 9.83811 25.1455 10.8094 25.5101C11.3028 26.3312 11.903 27.0808 12.5909 27.7395C12.7257 28.7646 12.6574 29.8479 12.4892 30.6414C12.184 32.082 12.505 32.2385 13.147 32.5516L14.431 33.1779C15.073 33.491 15.3939 33.6476 16.3412 32.5201C16.8723 31.888 17.7038 31.1524 18.6133 30.6254C19.0673 30.684 19.5302 30.7143 20.0001 30.7143C20.4701 30.7143 20.933 30.684 21.3869 30.6254C22.2965 31.1524 23.1279 31.888 23.659 32.5201C24.6063 33.6476 24.9273 33.491 25.5693 33.1779L26.8533 32.5516C27.4953 32.2385 27.8163 32.082 27.511 30.6414C27.3429 29.8479 27.2745 28.7646 27.4093 27.7395C28.0972 27.0808 28.6975 26.3312 29.1908 25.5101C30.1621 25.1455 31.238 24.9671 32.0521 24.9524C33.5244 24.9258 33.6047 24.5778 33.7654 23.8818L34.0867 22.4898C34.2474 21.7939 34.3278 21.4459 33.0161 20.7765C32.2839 20.4028 31.3849 19.7622 30.6683 18.999C30.5809 18.0559 30.3713 17.1484 30.0555 16.2922C30.3639 15.2834 30.8957 14.3029 31.3941 13.6407C32.2795 12.4641 32.0548 12.1866 31.6053 11.6314L30.7062 10.5212C30.2567 9.96614 30.032 9.68858 28.697 10.3101C27.9654 10.6506 26.9321 10.9595 25.9081 11.0604C25.1182 10.5373 24.2548 10.1161 23.3368 9.81549C22.7595 8.94885 22.3412 7.93582 22.143 7.14286C21.8068 5.79832 21.4707 5.71923 20.8368 5.71458ZM20.0001 13.5714C23.5505 13.5714 26.4287 16.4496 26.4287 20C26.4287 23.5504 23.5505 26.4286 20.0001 26.4286C16.4497 26.4286 13.5715 23.5504 13.5715 20C13.5715 16.4496 16.4497 13.5714 20.0001 13.5714ZM20.0001 16.4286C18.0277 16.4286 16.4287 18.0276 16.4287 20C16.4287 21.9724 18.0277 23.5714 20.0001 23.5714C21.9726 23.5714 23.5715 21.9724 23.5715 20C23.5715 18.0276 21.9726 16.4286 20.0001 16.4286Z" fill="black"/>
</g>
<defs>
<clipPath id="clip0_313_1207">
<rect width="40" height="40" fill="white"/>
</clipPath>
</defs>
</svg>
