<svg width="24" height="24" viewBox="0 0 24 24" fill="none" xmlns="http://www.w3.org/2000/svg">
<g clip-path="url(#clip0_641_3062)">
<path d="M12.9841 1.74928C13.3505 1.80791 13.6972 1.94813 14.0085 2.19715C14.5184 2.60508 14.7612 3.11929 14.9489 3.87001C14.9969 4.06219 15.0801 4.28623 15.184 4.50368C15.4223 4.60501 15.6555 4.71764 15.8828 4.84112C16.1072 4.78569 16.3226 4.71208 16.4947 4.63198C17.7052 4.06845 18.7207 4.09806 19.5523 4.99501C19.6226 5.07088 19.6646 5.12114 19.756 5.23398L20.2954 5.9001C20.4405 6.07925 20.5025 6.16088 20.594 6.31318C21.187 7.30013 20.9558 8.21929 20.2062 9.2153C20.0818 9.38056 19.9548 9.5969 19.8486 9.8245C19.9156 10.0667 19.9714 10.3123 20.0158 10.5606C20.2067 10.7135 20.4097 10.8476 20.5889 10.939C21.2782 11.2908 21.7246 11.6431 22.0074 12.2317C22.18 12.591 22.2386 12.9603 22.2133 13.3305C22.1999 13.5263 22.1788 13.6353 22.1224 13.8796L21.9296 14.7148C21.8732 14.959 21.8444 15.0664 21.7706 15.2481C21.631 15.592 21.4164 15.8982 21.1038 16.1455C20.5916 16.5506 20.0359 16.6715 19.2622 16.6855C19.0665 16.6891 18.8327 16.719 18.6 16.7702C18.4488 16.9792 18.2877 17.1809 18.1174 17.3747C18.1203 17.6097 18.1436 17.8407 18.1837 18.0296C18.3441 18.7866 18.3512 19.3552 18.0718 19.9454C17.9012 20.3056 17.651 20.5836 17.3474 20.797C17.1869 20.9097 17.0888 20.962 16.8635 21.0719L16.0931 21.4476C15.8677 21.5575 15.7662 21.6026 15.5785 21.6597C15.2234 21.7676 14.8504 21.7936 14.4615 21.7062C13.8243 21.5631 13.3807 21.2074 12.8829 20.6149C12.7513 20.4583 12.5715 20.2878 12.376 20.1344C12.2511 20.1401 12.1257 20.1429 12.0001 20.1429C11.8744 20.1429 11.7491 20.1401 11.6241 20.1344C11.4286 20.2878 11.2488 20.4583 11.1172 20.6149C10.6195 21.2074 10.1758 21.5631 9.53867 21.7062C9.14974 21.7936 8.77669 21.7676 8.42161 21.6597C8.23393 21.6026 8.1324 21.5575 7.90708 21.4476L7.13668 21.0719C7.06895 21.0389 7.02694 21.0181 6.97786 20.9925C5.85367 20.4071 5.52411 19.4093 5.81648 18.0296C5.85651 17.8407 5.87987 17.6097 5.88279 17.3747C5.71247 17.1809 5.55139 16.9792 5.40013 16.7702C5.16748 16.719 4.93361 16.6891 4.7379 16.6855C3.9642 16.6715 3.40854 16.5506 2.89637 16.1455C2.58371 15.8982 2.3691 15.592 2.22954 15.2481C2.15576 15.0664 2.12696 14.959 2.07056 14.7148L1.87775 13.8796C1.81804 13.621 1.79605 13.5057 1.78472 13.2961C1.76349 12.9033 1.83866 12.513 2.03806 12.1427C2.32859 11.6032 2.75862 11.2721 3.41122 10.939C3.59047 10.8476 3.79341 10.7135 3.98435 10.5606C4.02871 10.3123 4.08452 10.0667 4.15153 9.8245C4.0453 9.5969 3.91832 9.38056 3.79395 9.2153C3.04439 8.21929 2.81315 7.30013 3.40617 6.31318C3.49769 6.16088 3.55966 6.07925 3.70473 5.9001L4.24415 5.23398C4.33553 5.12114 4.37752 5.07088 4.44786 4.99501C5.27946 4.09806 6.29495 4.06845 7.50545 4.63198C7.67751 4.71208 7.89297 4.78569 8.11733 4.84112C8.34463 4.71764 8.57783 4.60501 8.81617 4.50368C8.92007 4.28623 9.00321 4.06219 9.05126 3.87001C9.23893 3.11929 9.48176 2.60508 9.99167 2.19715C10.3029 1.94813 10.6496 1.80791 11.0161 1.74928C11.171 1.72448 11.2731 1.71701 11.4361 1.71501L12.4286 1.71436C12.6793 1.71436 12.7904 1.71829 12.9841 1.74928ZM12.5021 3.42882L11.5715 3.42864C11.1429 3.42864 10.9286 3.42864 10.7144 4.28578C10.5954 4.76156 10.3444 5.36938 9.99804 5.88936C9.44725 6.0697 8.92924 6.32244 8.45526 6.63631C7.84089 6.57578 7.2209 6.39046 6.78194 6.18611C5.98096 5.81322 5.84611 5.97975 5.5764 6.31281L5.03698 6.97894C4.76727 7.312 4.63242 7.47853 5.16369 8.18448C5.46271 8.58182 5.7818 9.17011 5.96685 9.77538C5.77737 10.2891 5.65161 10.8336 5.59919 11.3994C5.16923 11.8574 4.62979 12.2418 4.19045 12.466C3.40348 12.8676 3.45169 13.0764 3.5481 13.494L3.74091 14.3291C3.83732 14.7467 3.88552 14.9555 4.7689 14.9715C5.25732 14.9803 5.90287 15.0874 6.48565 15.3062C6.78165 15.7988 7.14181 16.2485 7.55455 16.6438C7.63543 17.2588 7.59442 17.9088 7.49353 18.3849C7.31038 19.2492 7.50298 19.3432 7.88818 19.5311L8.65857 19.9068C9.04377 20.0947 9.23637 20.1886 9.80471 19.5122C10.1234 19.1329 10.6223 18.6915 11.168 18.3753C11.4404 18.4105 11.7181 18.4286 12.0001 18.4286C12.282 18.4286 12.5598 18.4105 12.8322 18.3753C13.3779 18.6915 13.8767 19.1329 14.1954 19.5122C14.7638 20.1886 14.9564 20.0947 15.3416 19.9068L16.112 19.5311C16.4972 19.3432 16.6898 19.2492 16.5066 18.3849C16.4057 17.9088 16.3647 17.2588 16.4456 16.6438C16.8583 16.2485 17.2185 15.7988 17.5145 15.3062C18.0973 15.0874 18.7428 14.9803 19.2312 14.9715C20.1146 14.9555 20.1628 14.7467 20.2592 14.3291L20.452 13.494C20.5485 13.0764 20.5967 12.8676 19.8097 12.466C19.3703 12.2418 18.8309 11.8574 18.401 11.3994C18.3485 10.8336 18.2228 10.2891 18.0333 9.77538C18.2183 9.17011 18.5374 8.58182 18.8365 8.18448C19.3677 7.47853 19.2329 7.312 18.9632 6.97894L18.4237 6.31281C18.154 5.97975 18.0192 5.81322 17.2182 6.18611C16.7792 6.39046 16.1593 6.57578 15.5449 6.63631C15.0709 6.32244 14.5529 6.0697 14.0021 5.88936C13.6557 5.36938 13.4047 4.76156 13.2858 4.28578C13.0841 3.47906 12.8824 3.43161 12.5021 3.42882ZM12.0001 8.14293C14.1303 8.14293 15.8572 9.86983 15.8572 12.0001C15.8572 14.1303 14.1303 15.8572 12.0001 15.8572C9.86983 15.8572 8.14293 14.1303 8.14293 12.0001C8.14293 9.86983 9.86983 8.14293 12.0001 8.14293ZM12.0001 9.85721C10.8166 9.85721 9.85721 10.8166 9.85721 12.0001C9.85721 13.1835 10.8166 14.1429 12.0001 14.1429C13.1835 14.1429 14.1429 13.1835 14.1429 12.0001C14.1429 10.8166 13.1835 9.85721 12.0001 9.85721Z" fill="#0055FF"/>
</g>
<defs>
<clipPath id="clip0_641_3062">
<rect width="24" height="24" fill="white"/>
</clipPath>
</defs>
</svg>
