<svg width="40" height="40" viewBox="0 0 40 40" fill="none" xmlns="http://www.w3.org/2000/svg">
<g clip-path="url(#clip0_337_923)">
<path d="M20.0001 27.3975L28.1287 32.3624C28.1947 32.4027 28.274 32.4153 28.3493 32.3973C28.5066 32.3598 28.6037 32.2018 28.5662 32.0445L26.3562 22.7795L33.5899 16.583C33.6487 16.5327 33.6852 16.4611 33.6913 16.384C33.7043 16.2228 33.584 16.0816 33.4228 16.0687L23.9284 15.3075L20.2705 6.51294C20.2408 6.44149 20.184 6.38471 20.1125 6.355C19.9632 6.29289 19.7918 6.3636 19.7297 6.51294L16.0718 15.3075L6.57734 16.0687C6.50021 16.0749 6.42867 16.1113 6.37833 16.1701C6.27311 16.2929 6.28739 16.4778 6.41022 16.583L13.644 22.7795L11.434 32.0445C11.416 32.1198 11.4286 32.1991 11.4689 32.2651C11.5532 32.4031 11.7335 32.4467 11.8715 32.3624L20.0001 27.3975ZM20.0001 30.7454L13.3608 34.8007C11.8761 35.7075 9.93744 35.2391 9.03062 33.7544C8.59681 33.0442 8.4617 32.1911 8.6548 31.3816L10.4599 23.8141L4.55149 18.7529C3.23026 17.6211 3.07668 15.6326 4.20845 14.3113C4.74987 13.6793 5.51943 13.2872 6.34901 13.2207L14.1039 12.599L17.0916 5.4157C17.7597 3.80941 19.6035 3.04885 21.2098 3.71694C21.9782 4.03655 22.5889 4.64727 22.9085 5.4157L25.8962 12.599L33.6511 13.2207C35.3853 13.3597 36.6784 14.8782 36.5393 16.6123C36.4728 17.4419 36.0807 18.2115 35.4487 18.7529L29.5402 23.8141L31.3454 31.3816C31.749 33.0738 30.7044 34.7728 29.0122 35.1765C28.2027 35.3696 27.3496 35.2345 26.6394 34.8007L20.0001 30.7454Z" fill="black"/>
</g>
<defs>
<clipPath id="clip0_337_923">
<rect width="40" height="40" fill="white"/>
</clipPath>
</defs>
</svg>
