<svg width="40" height="40" viewBox="0 0 40 40" fill="none" xmlns="http://www.w3.org/2000/svg">
<g clip-path="url(#clip0_337_972)">
<path d="M24.8265 2.85712C25.7737 2.85712 26.6821 3.23339 27.3519 3.90316L36.0966 12.6479C36.7664 13.3177 37.1426 14.2261 37.1426 15.1733V24.8267C37.1426 25.7739 36.7664 26.6823 36.0966 27.352L27.3519 36.0968C26.6821 36.7666 25.7737 37.1428 24.8265 37.1428H15.1731C14.2259 37.1428 13.3175 36.7666 12.6477 36.0968L3.90298 27.352C3.23321 26.6823 2.85693 25.7739 2.85693 24.8267V15.1733C2.85693 14.2261 3.23321 13.3177 3.90298 12.6479L12.6477 3.90316C13.3175 3.23339 14.2259 2.85712 15.1731 2.85712H24.8265ZM24.8265 5.71426H15.1731C14.9837 5.71426 14.802 5.78951 14.668 5.92347L5.92329 14.6682C5.78933 14.8022 5.71408 14.9838 5.71408 15.1733V24.8267C5.71408 25.0161 5.78933 25.1978 5.92329 25.3317L14.668 34.0765C14.802 34.2104 14.9837 34.2857 15.1731 34.2857H24.8265C25.0159 34.2857 25.1976 34.2104 25.3316 34.0765L34.0763 25.3317C34.2102 25.1978 34.2855 25.0161 34.2855 24.8267V15.1733C34.2855 14.9838 34.2102 14.8022 34.0763 14.6682L25.3316 5.92347C25.1976 5.78951 25.0159 5.71426 24.8265 5.71426ZM19.9998 24.0001L20.1752 24.009C21.0396 24.0968 21.7141 24.8267 21.7141 25.7143C21.7141 26.6609 20.9466 27.4284 19.9999 27.4284L19.8245 27.4195C18.9602 27.3318 18.2857 26.6018 18.2857 25.7143C18.2857 24.7676 19.0531 24.0001 19.9998 24.0001ZM19.9998 11.4285C20.7888 11.4285 21.4284 12.0681 21.4284 12.8571V20C21.4284 20.789 20.7888 21.4285 19.9998 21.4285C19.2108 21.4285 18.5712 20.789 18.5712 20V12.8571C18.5712 12.0681 19.2108 11.4285 19.9998 11.4285Z" fill="black"/>
</g>
<defs>
<clipPath id="clip0_337_972">
<rect width="40" height="40" fill="white"/>
</clipPath>
</defs>
</svg>
