<svg width="24" height="24" viewBox="0 0 24 24" fill="none" xmlns="http://www.w3.org/2000/svg">
<g clip-path="url(#clip0_337_83)">
<path d="M12 16.4385L16.8771 19.4174C16.9167 19.4416 16.9643 19.4491 17.0095 19.4384C17.1039 19.4158 17.1621 19.3211 17.1396 19.2267L15.8136 13.6677L20.1539 9.94977C20.1891 9.91957 20.211 9.87664 20.2147 9.83037C20.2225 9.73363 20.1503 9.64893 20.0536 9.64117L14.3569 9.18447L12.1622 3.90773C12.1444 3.86487 12.1103 3.8308 12.0674 3.81297C11.9778 3.7757 11.875 3.81813 11.8377 3.90773L9.64299 9.18447L3.94631 9.64117C3.90003 9.64488 3.8571 9.66675 3.8269 9.70201C3.76377 9.77571 3.77233 9.88664 3.84604 9.94977L8.18631 13.6677L6.86028 19.2267C6.84951 19.2718 6.85705 19.3194 6.88125 19.359C6.93183 19.4419 7.03998 19.468 7.12279 19.4174L12 16.4385ZM12 18.4472L8.01637 20.8804C7.12558 21.4245 5.96237 21.1434 5.41827 20.2526C5.15799 19.8265 5.07692 19.3146 5.19278 18.8289L6.27586 14.2884L2.7308 11.2517C1.93806 10.5726 1.84591 9.37951 2.52497 8.58677C2.84983 8.20754 3.31156 7.97227 3.80931 7.93237L8.46227 7.55934L10.2549 3.24939C10.6557 2.28561 11.762 1.82928 12.7258 2.23013C13.1868 2.4219 13.5533 2.78833 13.745 3.24939L15.5376 7.55934L20.1906 7.93237C21.2311 8.01578 22.0069 8.92688 21.9235 9.96736C21.8836 10.4651 21.6483 10.9268 21.2691 11.2517L17.724 14.2884L18.8071 18.8289C19.0493 19.8442 18.4226 20.8637 17.4072 21.1059C16.9215 21.2217 16.4097 21.1407 15.9835 20.8804L12 18.4472Z" fill="black"/>
</g>
<defs>
<clipPath id="clip0_337_83">
<rect width="24" height="24" fill="white"/>
</clipPath>
</defs>
</svg>
