<svg width="24" height="24" viewBox="0 0 24 24" fill="none" xmlns="http://www.w3.org/2000/svg">
<path d="M13.9284 6C13.9284 7.06512 13.0649 7.92857 11.9999 7.92857C10.9348 7.92857 10.0713 7.06512 10.0713 6C10.0713 4.93488 10.9348 4.07143 11.9999 4.07143C13.0649 4.07143 13.9284 4.93488 13.9284 6ZM13.9284 12C13.9284 13.0651 13.0649 13.9286 11.9999 13.9286C10.9348 13.9286 10.0713 13.0651 10.0713 12C10.0713 10.9349 10.9348 10.0714 11.9999 10.0714C13.0649 10.0714 13.9284 10.9349 13.9284 12ZM13.9284 18C13.9284 19.0651 13.0649 19.9286 11.9999 19.9286C10.9348 19.9286 10.0713 19.0651 10.0713 18C10.0713 16.9349 10.9348 16.0714 11.9999 16.0714C13.0649 16.0714 13.9284 16.9349 13.9284 18Z" fill="black"/>
</svg>
