<svg width="40" height="40" viewBox="0 0 40 40" fill="none" xmlns="http://www.w3.org/2000/svg">
<path fill-rule="evenodd" clip-rule="evenodd" d="M15.6344 13.5743C15.2564 13.5953 14.9021 13.7656 14.6495 14.0476C14.3969 14.3297 14.2666 14.7005 14.2873 15.0786L15.0016 27.9357C15.0224 28.3142 15.1928 28.669 15.4751 28.9219C15.7575 29.1748 16.1288 29.3051 16.5073 29.2843C16.8858 29.2635 17.2405 29.0931 17.4934 28.8107C17.7463 28.5284 17.8767 28.1571 17.8559 27.7786L17.1416 14.9214C17.1312 14.734 17.0839 14.5504 17.0025 14.3813C16.9211 14.2121 16.8072 14.0606 16.6672 13.9355C16.5273 13.8104 16.364 13.7141 16.1868 13.6521C16.0096 13.5901 15.8219 13.5637 15.6344 13.5743ZM24.3644 13.5743C24.5519 13.5844 24.7355 13.6312 24.9048 13.7123C25.0741 13.7933 25.2258 13.907 25.3512 14.0467C25.4766 14.1864 25.5732 14.3494 25.6355 14.5265C25.6978 14.7035 25.7246 14.8912 25.7144 15.0786L25.0001 27.9357C24.9793 28.314 24.809 28.6686 24.5268 28.9214C24.2445 29.1741 23.8735 29.3044 23.4951 29.2836C23.1168 29.2628 22.7623 29.0925 22.5095 28.8102C22.2567 28.528 22.1264 28.1569 22.1473 27.7786L22.8616 14.9214C22.8826 14.5434 23.0528 14.1891 23.3349 13.9365C23.617 13.6839 23.9864 13.5537 24.3644 13.5743Z" fill="black"/>
<path fill-rule="evenodd" clip-rule="evenodd" d="M4.99986 7.14288C4.62098 7.14288 4.25762 7.29339 3.98971 7.5613C3.7218 7.8292 3.57129 8.19257 3.57129 8.57145C3.57129 8.95033 3.7218 9.31369 3.98971 9.5816C4.25762 9.84951 4.62098 10 4.99986 10H6.56558L8.41986 28.3186C8.52415 29.3614 8.61272 30.2243 8.73986 30.9272C8.87129 31.66 9.06415 32.3272 9.437 32.9472C10.019 33.9135 10.8739 34.6859 11.8941 35.1672C12.5484 35.4757 13.2313 35.6 13.9741 35.6586C14.6856 35.7143 15.5541 35.7143 16.6027 35.7143H23.3984C24.4456 35.7143 25.3127 35.7143 26.027 35.6586C26.7684 35.6014 27.4513 35.4757 28.1056 35.1672C29.1258 34.6859 29.9807 33.9135 30.5627 32.9472C30.9356 32.3272 31.1284 31.66 31.2613 30.9272C31.387 30.2243 31.4756 29.36 31.5799 28.3186L33.4341 10H34.9999C35.3787 10 35.7421 9.84951 36.01 9.5816C36.2779 9.31369 36.4284 8.95033 36.4284 8.57145C36.4284 8.19257 36.2779 7.8292 36.01 7.5613C35.7421 7.29339 35.3787 7.14288 34.9999 7.14288H26.2699C25.9449 5.72329 25.1478 4.45601 24.0089 3.54837C22.8701 2.64073 21.4569 2.14648 20.0006 2.14648C18.5443 2.14648 17.1311 2.64073 15.9922 3.54837C14.8533 4.45601 14.0562 5.72329 13.7313 7.14288H4.99986ZM11.257 27.9757C11.3684 29.0872 11.4456 29.8386 11.5513 30.4186C11.6513 30.9814 11.7627 31.27 11.8856 31.4729C12.1763 31.9566 12.6038 32.3433 13.1141 32.5843C13.3284 32.6843 13.627 32.7657 14.197 32.81C14.7827 32.8557 15.5399 32.8572 16.657 32.8572H23.3427C24.4599 32.8572 25.2156 32.8572 25.8041 32.81C26.3741 32.7657 26.6713 32.6857 26.887 32.5843C27.3956 32.3429 27.8241 31.9557 28.1156 31.4729C28.237 31.27 28.347 30.9814 28.4484 30.4186C28.5541 29.8386 28.6313 29.0872 28.7427 27.9757L30.5641 10H9.437L11.257 27.9757ZM19.9999 5.00002C19.3048 4.99982 18.6247 5.20246 18.0431 5.5831C17.4615 5.96373 17.0036 6.50581 16.7256 7.14288H23.2741C22.9961 6.50581 22.5382 5.96373 21.9566 5.5831C21.375 5.20246 20.695 4.99982 19.9999 5.00002Z" fill="black"/>
</svg>
